<?xml version="1.0" encoding="utf-8"?>
<!-- Generator: Adobe Illustrator 16.0.4, SVG Export Plug-In . SVG Version: 6.00 Build 0)  -->
<!DOCTYPE svg PUBLIC "-//W3C//DTD SVG 1.1//EN" "http://www.w3.org/Graphics/SVG/1.1/DTD/svg11.dtd">
<svg version="1.1" id="Calque_1" xmlns="http://www.w3.org/2000/svg" xmlns:xlink="http://www.w3.org/1999/xlink" x="0px" y="0px"
	 width="1240px" height="199px" viewBox="-595.5 -5.5 1240 199" enable-background="new -595.5 -5.5 1240 199" xml:space="preserve"
	>
<path fill="none" stroke="#404040" stroke-width="7" stroke-miterlimit="10" d="M640,174.742c0,8.445-7.782,15.287-17.384,15.287
	H-75.117c-9.601,0-17.383-6.842-17.383-15.287V12.96c0-8.443,7.783-15.287,17.383-15.287h697.733C632.218-2.326,640,4.517,640,12.96
	V174.742z"/>
<path fill="#404040" stroke="#404040" stroke-width="7" stroke-miterlimit="10" d="M7.946,174.743
	c0,8.445-6.358,15.287-14.202,15.287h-570.042c-7.844,0-14.202-6.842-14.202-15.287V12.96c0-8.443,6.358-15.287,14.202-15.287
	H-6.256c7.844,0,14.202,6.843,14.202,15.287V174.743z"/>
<g>
	<g>
		<path id="a5iUP0pM7k" d="M304.46,62.4c6.22,2.02,10.5,6.37,13.35,12.2c0.511,1.06,0.95,2.13,1.46,3.32
			c1.58-1.98,3.051-3.88,4.591-5.74c8.6-10.22,22.26-14.14,34.06-9.7c8.98,3.36,13.42,10.33,15.36,19.32
			c0.75,3.57,0.989,7.21,0.989,10.81c0.04,16.75-0.039,33.541,0.08,50.291c0,2.14-0.71,2.289-3.25,2.06
			c-2.89-0.28-5.779-0.24-8.67,0.04c-2.02,0.189-2.41-0.24-2.41-1.859c0.03-16.44,0.03-32.871,0.03-49.301
			c0-3.84-0.31-7.64-1.78-11.25c-3.239-8.07-11.199-11.44-19.319-8.19c-6.181,2.45-10.53,7.01-14.65,11.99
			c-2.3,2.78-3.21,5.709-3.13,9.39c0.2,15.72,0.04,31.399,0.12,47.12c0,2.369-0.83,2.33-4.24,1.939c-2.25-0.24-4.59-0.24-6.85,0.04
			c-2.73,0.351-3.28,0.12-3.24-1.739C307,126.7,307,110.27,307,93.84c0-3.84-0.32-7.64-1.79-11.25
			c-3.16-7.88-10.45-11.16-18.72-8.39c-6.42,2.14-10.89,6.69-15.13,11.68c-2.38,2.81-3.29,5.78-3.25,9.54
			c0.2,15.84,0.04,31.68,0.12,47.52c0,2.101-0.59,2.451-4.16,1.86c-2.01-0.36-4.11-0.36-6.17,0c-3.53,0.591-4,0.16-4-1.86
			c0.04-25.42,0.04-50.799,0.04-76.22c0-4.08,0-4.08,4.16-4.08c2.65,0,5.26,0.08,7.91-0.04c1.47-0.08,1.75,0.43,1.71,1.78
			c-0.12,3.76-0.08,7.56-0.08,11.84c2.61-3.37,4.99-6.3,8-8.67C284.35,60.7,294.01,58.99,304.46,62.4z"/>
	</g>
	<g>
		<g>
			<path id="a5iUP0pM7k_1_" fill-opacity="0" stroke="#000000" stroke-opacity="0" d="M304.46,62.4c6.22,2.02,10.5,6.37,13.35,12.2
				c0.511,1.06,0.95,2.13,1.46,3.32c1.58-1.98,3.051-3.88,4.591-5.74c8.6-10.22,22.26-14.14,34.06-9.7
				c8.98,3.36,13.42,10.33,15.36,19.32c0.75,3.57,0.989,7.21,0.989,10.81c0.04,16.75-0.039,33.541,0.08,50.291
				c0,2.14-0.71,2.289-3.25,2.06c-2.89-0.28-5.779-0.24-8.67,0.04c-2.02,0.189-2.41-0.24-2.41-1.859
				c0.03-16.44,0.03-32.871,0.03-49.301c0-3.84-0.31-7.64-1.78-11.25c-3.239-8.07-11.199-11.44-19.319-8.19
				c-6.181,2.45-10.53,7.01-14.65,11.99c-2.3,2.78-3.21,5.709-3.13,9.39c0.2,15.72,0.04,31.399,0.12,47.12
				c0,2.369-0.83,2.33-4.24,1.939c-2.25-0.24-4.59-0.24-6.85,0.04c-2.73,0.351-3.28,0.12-3.24-1.739C307,126.7,307,110.27,307,93.84
				c0-3.84-0.32-7.64-1.79-11.25c-3.16-7.88-10.45-11.16-18.72-8.39c-6.42,2.14-10.89,6.69-15.13,11.68
				c-2.38,2.81-3.29,5.78-3.25,9.54c0.2,15.84,0.04,31.68,0.12,47.52c0,2.101-0.59,2.451-4.16,1.86c-2.01-0.36-4.11-0.36-6.17,0
				c-3.53,0.591-4,0.16-4-1.86c0.04-25.42,0.04-50.799,0.04-76.22c0-4.08,0-4.08,4.16-4.08c2.65,0,5.26,0.08,7.91-0.04
				c1.47-0.08,1.75,0.43,1.71,1.78c-0.12,3.76-0.08,7.56-0.08,11.84c2.61-3.37,4.99-6.3,8-8.67
				C284.35,60.7,294.01,58.99,304.46,62.4z"/>
		</g>
	</g>
</g>
<g>
	<g>
		<path id="bTW6eMgSU" d="M613.26,63.07c0.51-1.46,1.03-1.74,2.45-1.15c3.29,1.39,6.61,2.62,9.94,3.85
			c1.069,0.39,1.43,0.71,0.989,1.94c-10.409,28.31-20.75,56.66-31.239,84.97c-2.851,7.68-6.69,14.891-12.67,20.75
			c-4.99,4.91-11.091,7.601-17.98,8.07c-5.66,0.4-11.36,0.32-16.67-2.25c-1.5-0.76-1.59-1.32-0.62-4.061
			c0.57-1.64,0.54-1.5,0.9-2.33c0.37-0.829,0.409-1.64,0.71-2.43c0.29-0.8,0.399-3.85,2.14-3.14c6.1,2.49,12.271,3.21,18.33,0.04
			c4.56-2.42,7.33-6.57,9.62-10.971c2.89-5.539,3.689-8.35,3.689-8.35s-2.26-5.189-4.79-10.699c-9.71-22.011-19.489-43.99-29.27-66
			c-0.51-1.19-0.99-2.46-1.62-3.6c-0.59-1.11-0.28-1.55,0.83-1.98c1.6-0.66,3.03-1.12,4.94-2.03c1.92-0.9,2.92-1.41,4.449-2.17
			c1.5-0.75,2.101-0.561,2.811,1.03c7.6,17.14,15.28,34.209,22.92,51.31c1.38,3.04,3.479,7.58,6.31,13.61
			c0.07,0.14,0.63,1.26,0.7,1.399c3.94-11.11,6.88-19.45,8.83-25.021C603.75,90.28,608.54,76.69,613.26,63.07z"/>
	</g>
	<g>
		<g>
			<path id="bTW6eMgSU_1_" fill-opacity="0" stroke="#000000" stroke-opacity="0" d="M613.26,63.07c0.51-1.46,1.03-1.74,2.45-1.15
				c3.29,1.39,6.61,2.62,9.94,3.85c1.069,0.39,1.43,0.71,0.989,1.94c-10.409,28.31-20.75,56.66-31.239,84.97
				c-2.851,7.68-6.69,14.891-12.67,20.75c-4.99,4.91-11.091,7.601-17.98,8.07c-5.66,0.4-11.36,0.32-16.67-2.25
				c-1.5-0.76-1.59-1.32-0.62-4.061c0.57-1.64,0.54-1.5,0.9-2.33c0.37-0.829,0.409-1.64,0.71-2.43c0.29-0.8,0.399-3.85,2.14-3.14
				c6.1,2.49,12.271,3.21,18.33,0.04c4.56-2.42,7.33-6.57,9.62-10.971c2.89-5.539,3.689-8.35,3.689-8.35s-2.26-5.189-4.79-10.699
				c-9.71-22.011-19.489-43.99-29.27-66c-0.51-1.19-0.99-2.46-1.62-3.6c-0.59-1.11-0.28-1.55,0.83-1.98
				c1.6-0.66,3.03-1.12,4.94-2.03c1.92-0.9,2.92-1.41,4.449-2.17c1.5-0.75,2.101-0.561,2.811,1.03
				c7.6,17.14,15.28,34.209,22.92,51.31c1.38,3.04,3.479,7.58,6.31,13.61c0.07,0.14,0.63,1.26,0.7,1.399
				c3.94-11.11,6.88-19.45,8.83-25.021C603.75,90.28,608.54,76.69,613.26,63.07z"/>
		</g>
	</g>
</g>
<g>
	<g>
		<path id="hfoH9AAig" d="M428.95,34.09c3.33,0.28,6.649,0.28,9.939,0c2.101-0.16,2.69,0.12,2.69,2.02
			c-0.08,18.01,0,36.03-0.04,54.01c0,7.84,0.24,15.72-0.2,23.56c-0.27,5.221-1.22,10.33-3.16,15.2c-4,10.021-11.29,16.04-22.02,17.5
			c-10.49,1.47-20.15-0.71-28.59-7.44c-1.301-1.029-1.511-1.64,0.279-3.799c1.79-2.16,0,0,0,0c1.12-0.75,2.9-3.9,3.67-5.141
			c0.771-1.23,1.561-4.17,3.021-2.82c3.69,3.48,8,5.86,13.03,6.49c9.5,1.189,15.8-3.6,17.899-13.22c0.83-3.88,0.99-7.841,1.03-11.8
			c0.04-11.09,0.04-22.181,0.04-33.26c0-13.11,0.04-26.25-0.04-39.36C426.5,34.33,426.97,33.93,428.95,34.09z"/>
	</g>
	<g>
		<g>
			<path id="hfoH9AAig_1_" fill-opacity="0" stroke="#000000" stroke-opacity="0" d="M428.95,34.09c3.33,0.28,6.649,0.28,9.939,0
				c2.101-0.16,2.69,0.12,2.69,2.02c-0.08,18.01,0,36.03-0.04,54.01c0,7.84,0.24,15.72-0.2,23.56c-0.27,5.221-1.22,10.33-3.16,15.2
				c-4,10.021-11.29,16.04-22.02,17.5c-10.49,1.47-20.15-0.71-28.59-7.44c-1.301-1.029-1.511-1.64,0.279-3.799c1.79-2.16,0,0,0,0
				c1.12-0.75,2.9-3.9,3.67-5.141c0.771-1.23,1.561-4.17,3.021-2.82c3.69,3.48,8,5.86,13.03,6.49c9.5,1.189,15.8-3.6,17.899-13.22
				c0.83-3.88,0.99-7.841,1.03-11.8c0.04-11.09,0.04-22.181,0.04-33.26c0-13.11,0.04-26.25-0.04-39.36
				C426.5,34.33,426.97,33.93,428.95,34.09z"/>
		</g>
	</g>
</g>
<g>
	<g>
		<path id="d1fwQfWThk" d="M215.05,34.13c2.78,0.32,5.59,0.32,8.36,0.04c2.89-0.28,3.64-0.2,3.64,2.02
			c-0.08,20.59-0.04,41.14-0.04,61.73c0,15.04-0.04,30.09,0.04,45.1c0,1.86-0.55,2.17-3.05,1.9c-2.81-0.32-5.66-0.359-8.47-0.04
			c-2.85,0.31-3.6,0.2-3.6-1.899c0.04-17.82,0-35.641,0-53.461c0-17.819,0.04-35.589-0.04-53.41
			C211.89,34.17,212.44,33.85,215.05,34.13z"/>
	</g>
	<g>
		<g>
			<path id="d1fwQfWThk_1_" fill-opacity="0" stroke="#000000" stroke-opacity="0" d="M215.05,34.13c2.78,0.32,5.59,0.32,8.36,0.04
				c2.89-0.28,3.64-0.2,3.64,2.02c-0.08,20.59-0.04,41.14-0.04,61.73c0,15.04-0.04,30.09,0.04,45.1c0,1.86-0.55,2.17-3.05,1.9
				c-2.81-0.32-5.66-0.359-8.47-0.04c-2.85,0.31-3.6,0.2-3.6-1.899c0.04-17.82,0-35.641,0-53.461c0-17.819,0.04-35.589-0.04-53.41
				C211.89,34.17,212.44,33.85,215.05,34.13z"/>
		</g>
	</g>
</g>
<g>
	<g>
		<path id="aaTZOGGzy" d="M506.23,60.87l1.909,0.24l1.91,0.32l1.891,0.41l1.869,0.5l1.851,0.58l1.82,0.67l1.789,0.75l1.75,0.85
			l1.721,0.93l1.67,1.02l1.63,1.11l1.57,1.2l1.52,1.29l1.46,1.39l1.4,1.47l1.33,1.57l1.25,1.66l1.18,1.76l1.11,1.85l1.01,1.94
			l0.93,2.05l0.84,2.13l0.74,2.24l0.64,2.33l0.54,2.431l0.15,0.789l0.14,0.78l0.131,0.79l0.119,0.78l0.101,0.79l0.1,0.779
			l0.16,1.561l0.06,0.779l0.051,0.781l0.04,0.779l0.029,0.77l0.011,0.78l0.01,0.771l-0.01,0.77l-0.021,0.78l-0.03,0.771l-0.04,0.76
			l-0.06,0.77l-0.07,0.77l-0.08,0.761l-0.09,0.771l-0.109,0.76l-0.12,0.76l-0.13,0.76l-0.141,0.75l-0.16,0.76l-0.17,0.75l-0.18,0.76
			l-0.2,0.75l-0.21,0.74l-0.46,1.5l-0.52,1.48l-0.28,0.74l-0.3,0.74l-0.311,0.729l-0.319,0.739l-0.341,0.73l-0.489,1.02l-0.521,1
			l-0.53,0.98l-0.55,0.95l-0.569,0.93l-0.591,0.9l-0.6,0.88l-0.62,0.859l-0.64,0.83l-0.65,0.811l-0.67,0.79l-0.689,0.76l-0.7,0.73
			l-0.721,0.72l-0.729,0.689l-0.76,0.66l-0.771,0.65l-0.779,0.62l-0.801,0.59l-0.819,0.58l-0.83,0.55l-0.851,0.52l-0.87,0.511
			l-0.88,0.479l-0.899,0.45l-0.91,0.44l-0.93,0.41l-0.94,0.39l-0.96,0.36l-0.98,0.34l-0.989,0.32l-1,0.299l-1.021,0.271l-1.04,0.25
			l-1.05,0.229l-1.06,0.201l-1.08,0.189l-1.101,0.16l-1.109,0.13l-1.12,0.12l-0.88,0.07l-0.87,0.06l-0.87,0.04l-0.86,0.029
			l-0.859,0.011l-0.86-0.011l-0.85-0.02l-0.851-0.04l-0.84-0.05l-0.84-0.07l-0.83-0.08l-0.83-0.1l-0.83-0.12l-0.81-0.14l-0.82-0.15
			l-0.81-0.16l-0.801-0.189l-0.8-0.2l-0.8-0.22l-0.78-0.23l-0.79-0.25l-0.779-0.27l-0.771-0.28l-0.77-0.31l-0.761-0.32l-0.75-0.34
			l-0.76-0.351l-0.74-0.37l-0.739-0.39l-0.73-0.41l-0.729-0.43l-0.721-0.44l-0.72-0.46l-0.71-0.479l-0.7-0.5l-0.7-0.521l-0.689-0.53
			l-0.681-0.56l-0.68-0.569l-0.67-0.591l-0.56-0.5l-0.54-0.52l-0.53-0.521l-0.51-0.52l-0.511-0.53l-0.489-0.54l-0.48-0.55
			l-0.46-0.55l-0.46-0.561l-0.439-0.57l-0.431-0.569l-0.42-0.58l-0.41-0.58l-0.39-0.59l-0.76-1.2l-0.36-0.609l-0.68-1.24
			l-0.33-0.631l-0.311-0.629l-0.3-0.641l-0.3-0.65l-0.28-0.649l-0.27-0.649l-0.26-0.66l-0.25-0.67l-0.23-0.67l-0.23-0.681
			l-0.22-0.69l-0.21-0.68l-0.38-1.4l-0.18-0.699l-0.16-0.71l-0.16-0.72l-0.15-0.721l-0.13-0.72l-0.13-0.729l-0.12-0.73l-0.029-0.21
			l-0.03-0.22l-0.061-0.42l-0.02-0.211l-0.03-0.209l-0.02-0.221l-0.03-0.21l-0.02-0.22l-0.021-0.21l-0.06-0.66l-0.011-0.22
			l-0.02-0.221l-0.021-0.229l-0.01-0.22l-0.02-0.23l-0.011-0.24l-0.01-0.229l-0.02-0.23l-0.021-0.479l-0.01-0.25l-0.02-0.24
			l-0.011-0.25l-0.01-0.26l-0.01-0.25l-0.021-0.521l-0.01-0.27l-0.02-0.271l-0.011-0.27l-0.02-0.561l-0.021-0.289l-0.02-0.58
			l-0.021-0.301l-0.01-0.3l0.04-1.04l0.061-1.02l0.069-1.03l0.101-1.021l0.109-1.01l0.13-1.01l0.15-1l0.16-1l0.189-0.99l0.211-0.99
			l0.229-0.97l0.24-0.97l0.27-0.97l0.29-0.95l0.311-0.95l0.34-0.94l0.359-0.93l0.37-0.92l0.41-0.91l0.42-0.9l0.45-0.89l0.48-0.88
			l0.5-0.87l0.52-0.86l0.55-0.85l0.58-0.83l0.601-0.82l0.619-0.82l0.66-0.79l0.681-0.79l0.71-0.77l0.739-0.76l0.761-0.74l0.8-0.73
			l0.82-0.71l0.85-0.7l0.88-0.68l0.91-0.67l0.95-0.65l0.97-0.64l1.59-0.95l1.63-0.88l1.681-0.8l1.729-0.73l1.76-0.65l1.801-0.57
			l1.829-0.49l1.851-0.42l1.87-0.33l1.899-0.25l1.9-0.18l1.92-0.09l1.92-0.01l1.93,0.07L506.23,60.87z M499.3,73.49l-1.16,0.1
			l-1.149,0.15l-1.141,0.2l-1.119,0.24l-1.101,0.3l-1.09,0.34l-1.07,0.38l-1.04,0.44l-1.02,0.47l-0.99,0.52l-0.96,0.56l-0.93,0.6
			l-0.891,0.65l-0.859,0.68l-0.82,0.72l-0.78,0.77l-0.729,0.8L482,81.93l-0.44,0.54l-0.409,0.54l-0.4,0.54l-0.38,0.55L480,84.66
			l-0.35,0.56l-0.341,0.57l-0.619,1.14l-0.29,0.59l-0.271,0.58l-0.26,0.59l-0.25,0.6l-0.24,0.601l-0.22,0.6l-0.2,0.609l-0.2,0.62
			l-0.18,0.61l-0.17,0.62l-0.16,0.63l-0.14,0.62l-0.141,0.63l-0.12,0.64l-0.22,1.28l-0.09,0.641l-0.08,0.649l-0.14,1.3l-0.051,0.65
			l-0.05,0.66l-0.04,0.66l-0.029,0.659l-0.021,0.671l-0.01,0.659l0.01,0.261l0.021,0.5l0.02,0.26l0.021,0.5l0.04,0.5l0.01,0.25
			l0.08,1l0.029,0.25l0.021,0.25l0.03,0.25l0.02,0.25l0.03,0.25l0.03,0.24l0.06,0.5l0.04,0.239l0.03,0.25l0.04,0.24l0.04,0.25
			l0.04,0.24l0.039,0.25l0.051,0.239l0.04,0.25l0.149,0.721l0.05,0.25l0.051,0.24l0.12,0.479l0.27,1.01l0.31,1l0.341,1l0.359,0.99
			l0.4,0.97l0.43,0.961l0.47,0.949l0.49,0.93l0.521,0.92l0.55,0.9l0.58,0.87l0.609,0.86l0.631,0.84l0.67,0.81l0.689,0.78l0.72,0.76
			l0.75,0.73l0.771,0.699l0.8,0.67l0.83,0.641l0.85,0.6l0.881,0.57l0.899,0.53l0.931,0.5l0.949,0.45l0.971,0.41l1,0.369l1.02,0.33
			l1.05,0.28l1.07,0.229l1.09,0.181l1.11,0.14l1.14,0.09l1.15,0.03l1.18-0.03l1.2-0.07l0.57-0.06l0.579-0.069l0.57-0.07l1.12-0.18
			l0.56-0.101l0.551-0.12l0.54-0.119l0.55-0.131l1.06-0.3l0.53-0.16l0.52-0.18l0.511-0.181l0.51-0.199l0.5-0.21l0.5-0.22l0.49-0.23
			l0.489-0.24l0.48-0.25l0.94-0.54l0.46-0.29l0.46-0.31l0.449-0.31l0.44-0.33l0.44-0.341l0.43-0.35l0.43-0.36l0.41-0.38l0.42-0.399
			l0.4-0.4l0.399-0.42l0.391-0.43l0.38-0.45l0.38-0.46l0.76-1.01l0.72-1.041l0.66-1.069l0.63-1.11l0.57-1.14l0.53-1.16l0.49-1.19
			l0.43-1.209l0.39-1.24l0.351-1.25l0.3-1.271l0.26-1.28l0.2-1.289l0.17-1.311l0.12-1.311l0.069-1.31l0.03-1.319l-0.02-1.32
			l-0.061-1.32l-0.109-1.32l-0.15-1.31l-0.2-1.3l-0.24-1.301l-0.279-1.279l-0.33-1.26l-0.38-1.25l-0.41-1.24l-0.46-1.21l-0.51-1.181
			l-0.551-1.169l-0.59-1.13l-0.64-1.1l-0.68-1.08l-0.721-1.03L520.95,83l-0.811-0.96l-0.909-0.99l-0.95-0.93l-0.98-0.86l-1.01-0.8
			l-1.03-0.74l-1.06-0.67l-1.08-0.62l-1.09-0.55l-1.12-0.5l-1.13-0.44l-1.141-0.38l-1.159-0.32l-1.16-0.271l-1.17-0.21l-1.17-0.16
			l-1.181-0.11l-1.17-0.05h-1.17L499.3,73.49z"/>
	</g>
	<g>
		<g>
			<path id="aaTZOGGzy_1_" fill-opacity="0" stroke="#000000" stroke-opacity="0" d="M506.23,60.87l1.909,0.24l1.91,0.32l1.891,0.41
				l1.869,0.5l1.851,0.58l1.82,0.67l1.789,0.75l1.75,0.85l1.721,0.93l1.67,1.02l1.63,1.11l1.57,1.2l1.52,1.29l1.46,1.39l1.4,1.47
				l1.33,1.57l1.25,1.66l1.18,1.76l1.11,1.85l1.01,1.94l0.93,2.05l0.84,2.13l0.74,2.24l0.64,2.33l0.54,2.431l0.15,0.789l0.14,0.78
				l0.131,0.79l0.119,0.78l0.101,0.79l0.1,0.779l0.16,1.561l0.06,0.779l0.051,0.781l0.04,0.779l0.029,0.77l0.011,0.78l0.01,0.771
				l-0.01,0.77l-0.021,0.78l-0.03,0.771l-0.04,0.76l-0.06,0.77l-0.07,0.77l-0.08,0.761l-0.09,0.771l-0.109,0.76l-0.12,0.76
				l-0.13,0.76l-0.141,0.75l-0.16,0.76l-0.17,0.75l-0.18,0.76l-0.2,0.75l-0.21,0.74l-0.46,1.5l-0.52,1.48l-0.28,0.74l-0.3,0.74
				l-0.311,0.729l-0.319,0.739l-0.341,0.73l-0.489,1.02l-0.521,1l-0.53,0.98l-0.55,0.95l-0.569,0.93l-0.591,0.9l-0.6,0.88
				l-0.62,0.859l-0.64,0.83l-0.65,0.811l-0.67,0.79l-0.689,0.76l-0.7,0.73l-0.721,0.72l-0.729,0.689l-0.76,0.66l-0.771,0.65
				l-0.779,0.62l-0.801,0.59l-0.819,0.58l-0.83,0.55l-0.851,0.52l-0.87,0.511l-0.88,0.479l-0.899,0.45l-0.91,0.44l-0.93,0.41
				l-0.94,0.39l-0.96,0.36l-0.98,0.34l-0.989,0.32l-1,0.299l-1.021,0.271l-1.04,0.25l-1.05,0.229l-1.06,0.201l-1.08,0.189
				l-1.101,0.16l-1.109,0.13l-1.12,0.12l-0.88,0.07l-0.87,0.06l-0.87,0.04l-0.86,0.029l-0.859,0.011l-0.86-0.011l-0.85-0.02
				l-0.851-0.04l-0.84-0.05l-0.84-0.07l-0.83-0.08l-0.83-0.1l-0.83-0.12l-0.81-0.14l-0.82-0.15l-0.81-0.16l-0.801-0.189l-0.8-0.2
				l-0.8-0.22l-0.78-0.23l-0.79-0.25l-0.779-0.27l-0.771-0.28l-0.77-0.31l-0.761-0.32l-0.75-0.34l-0.76-0.351l-0.74-0.37
				l-0.739-0.39l-0.73-0.41l-0.729-0.43l-0.721-0.44l-0.72-0.46l-0.71-0.479l-0.7-0.5l-0.7-0.521l-0.689-0.53l-0.681-0.56
				l-0.68-0.569l-0.67-0.591l-0.56-0.5l-0.54-0.52l-0.53-0.521l-0.51-0.52l-0.511-0.53l-0.489-0.54l-0.48-0.55l-0.46-0.55
				l-0.46-0.561l-0.439-0.57l-0.431-0.569l-0.42-0.58l-0.41-0.58l-0.39-0.59l-0.76-1.2l-0.36-0.609l-0.68-1.24l-0.33-0.631
				l-0.311-0.629l-0.3-0.641l-0.3-0.65l-0.28-0.649l-0.27-0.649l-0.26-0.66l-0.25-0.67l-0.23-0.67l-0.23-0.681l-0.22-0.69
				l-0.21-0.68l-0.38-1.4l-0.18-0.699l-0.16-0.71l-0.16-0.72l-0.15-0.721l-0.13-0.72l-0.13-0.729l-0.12-0.73l-0.029-0.21l-0.03-0.22
				l-0.061-0.42l-0.02-0.211l-0.03-0.209l-0.02-0.221l-0.03-0.21l-0.02-0.22l-0.021-0.21l-0.06-0.66l-0.011-0.22l-0.02-0.221
				l-0.021-0.229l-0.01-0.22l-0.02-0.23l-0.011-0.24l-0.01-0.229l-0.02-0.23l-0.021-0.479l-0.01-0.25l-0.02-0.24l-0.011-0.25
				l-0.01-0.26l-0.01-0.25l-0.021-0.521l-0.01-0.27l-0.02-0.271l-0.011-0.27l-0.02-0.561l-0.021-0.289l-0.02-0.58l-0.021-0.301
				l-0.01-0.3l0.04-1.04l0.061-1.02l0.069-1.03l0.101-1.021l0.109-1.01l0.13-1.01l0.15-1l0.16-1l0.189-0.99l0.211-0.99l0.229-0.97
				l0.24-0.97l0.27-0.97l0.29-0.95l0.311-0.95l0.34-0.94l0.359-0.93l0.37-0.92l0.41-0.91l0.42-0.9l0.45-0.89l0.48-0.88l0.5-0.87
				l0.52-0.86l0.55-0.85l0.58-0.83l0.601-0.82l0.619-0.82l0.66-0.79l0.681-0.79l0.71-0.77l0.739-0.76l0.761-0.74l0.8-0.73l0.82-0.71
				l0.85-0.7l0.88-0.68l0.91-0.67l0.95-0.65l0.97-0.64l1.59-0.95l1.63-0.88l1.681-0.8l1.729-0.73l1.76-0.65l1.801-0.57l1.829-0.49
				l1.851-0.42l1.87-0.33l1.899-0.25l1.9-0.18l1.92-0.09l1.92-0.01l1.93,0.07L506.23,60.87z M499.3,73.49l-1.16,0.1l-1.149,0.15
				l-1.141,0.2l-1.119,0.24l-1.101,0.3l-1.09,0.34l-1.07,0.38l-1.04,0.44l-1.02,0.47l-0.99,0.52l-0.96,0.56l-0.93,0.6l-0.891,0.65
				l-0.859,0.68l-0.82,0.72l-0.78,0.77l-0.729,0.8L482,81.93l-0.44,0.54l-0.409,0.54l-0.4,0.54l-0.38,0.55L480,84.66l-0.35,0.56
				l-0.341,0.57l-0.619,1.14l-0.29,0.59l-0.271,0.58l-0.26,0.59l-0.25,0.6l-0.24,0.601l-0.22,0.6l-0.2,0.609l-0.2,0.62l-0.18,0.61
				l-0.17,0.62l-0.16,0.63l-0.14,0.62l-0.141,0.63l-0.12,0.64l-0.22,1.28l-0.09,0.641l-0.08,0.649l-0.14,1.3l-0.051,0.65l-0.05,0.66
				l-0.04,0.66l-0.029,0.659l-0.021,0.671l-0.01,0.659l0.01,0.261l0.021,0.5l0.02,0.26l0.021,0.5l0.04,0.5l0.01,0.25l0.08,1
				l0.029,0.25l0.021,0.25l0.03,0.25l0.02,0.25l0.03,0.25l0.03,0.24l0.06,0.5l0.04,0.239l0.03,0.25l0.04,0.24l0.04,0.25l0.04,0.24
				l0.039,0.25l0.051,0.239l0.04,0.25l0.149,0.721l0.05,0.25l0.051,0.24l0.12,0.479l0.27,1.01l0.31,1l0.341,1l0.359,0.99l0.4,0.97
				l0.43,0.961l0.47,0.949l0.49,0.93l0.521,0.92l0.55,0.9l0.58,0.87l0.609,0.86l0.631,0.84l0.67,0.81l0.689,0.78l0.72,0.76
				l0.75,0.73l0.771,0.699l0.8,0.67l0.83,0.641l0.85,0.6l0.881,0.57l0.899,0.53l0.931,0.5l0.949,0.45l0.971,0.41l1,0.369l1.02,0.33
				l1.05,0.28l1.07,0.229l1.09,0.181l1.11,0.14l1.14,0.09l1.15,0.03l1.18-0.03l1.2-0.07l0.57-0.06l0.579-0.069l0.57-0.07l1.12-0.18
				l0.56-0.101l0.551-0.12l0.54-0.119l0.55-0.131l1.06-0.3l0.53-0.16l0.52-0.18l0.511-0.181l0.51-0.199l0.5-0.21l0.5-0.22l0.49-0.23
				l0.489-0.24l0.48-0.25l0.94-0.54l0.46-0.29l0.46-0.31l0.449-0.31l0.44-0.33l0.44-0.341l0.43-0.35l0.43-0.36l0.41-0.38l0.42-0.399
				l0.4-0.4l0.399-0.42l0.391-0.43l0.38-0.45l0.38-0.46l0.76-1.01l0.72-1.041l0.66-1.069l0.63-1.11l0.57-1.14l0.53-1.16l0.49-1.19
				l0.43-1.209l0.39-1.24l0.351-1.25l0.3-1.271l0.26-1.28l0.2-1.289l0.17-1.311l0.12-1.311l0.069-1.31l0.03-1.319l-0.02-1.32
				l-0.061-1.32l-0.109-1.32l-0.15-1.31l-0.2-1.3l-0.24-1.301l-0.279-1.279l-0.33-1.26l-0.38-1.25l-0.41-1.24l-0.46-1.21
				l-0.51-1.181l-0.551-1.169l-0.59-1.13l-0.64-1.1l-0.68-1.08l-0.721-1.03L520.95,83l-0.811-0.96l-0.909-0.99l-0.95-0.93
				l-0.98-0.86l-1.01-0.8l-1.03-0.74l-1.06-0.67l-1.08-0.62l-1.09-0.55l-1.12-0.5l-1.13-0.44l-1.141-0.38l-1.159-0.32l-1.16-0.271
				l-1.17-0.21l-1.17-0.16l-1.181-0.11l-1.17-0.05h-1.17L499.3,73.49z"/>
		</g>
	</g>
</g>
<g>
	<g>
		<g>
			<path id="d1biwqtKKP" fill="#448AFF" d="M39.76,11.89c41.7,0,83.43,0,125.13,0c10.73,0,18.57,6.7,20.31,17.27
				c0.2,1.11,0.16,2.21,0.16,3.36c0,41.79,0,83.57,0,125.35c0,12.68-8.87,20.76-21.82,20.72c-40.94-0.08-81.84-0.12-122.79,0
				c-12.94,0.04-22.05-7.96-22.09-20.72c0.04-20.9,0.04-41.82,0.04-62.77c0-20.71,0-41.46,0-62.17
				C18.7,20.21,27.05,11.89,39.76,11.89z"/>
		</g>
		<g>
			<g>
				<path id="d1biwqtKKP_1_" fill-opacity="0" stroke="#000000" stroke-width="3" stroke-opacity="0" d="M39.76,11.89
					c41.7,0,83.43,0,125.13,0c10.73,0,18.57,6.7,20.31,17.27c0.2,1.11,0.16,2.21,0.16,3.36c0,41.79,0,83.57,0,125.35
					c0,12.68-8.87,20.76-21.82,20.72c-40.94-0.08-81.84-0.12-122.79,0c-12.94,0.04-22.05-7.96-22.09-20.72
					c0.04-20.9,0.04-41.82,0.04-62.77c0-20.71,0-41.46,0-62.17C18.7,20.21,27.05,11.89,39.76,11.89z"/>
			</g>
		</g>
	</g>
	<g>
		<g>
			<path id="g3v9M5pdt" fill="#FEFEFE" d="M166.47,86.74c5.99,5.07,6.82,7.02,6.14,10.84c-0.77,4.35-4.83,5.63-9.14,4.82
				c-1.5-0.32-2.5,2.25-2.87,3.43c-3.13,10.25-6.89,17.76-13.56,26.189c-9.71,12.261-22.41,19.521-37.98,20.83
				c-27.04,2.32-46.78-9.8-60.93-32.119c-3.13-4.95-5.36-10.301-6.67-16.021c-0.19-0.68-0.14-1.14-1.23-0.95
				c-4.58,0.631-7.13-0.06-8.63-3.87c-1.49-3.77,0.13-5.65,3.44-8.23c4.22-3.27,8.71-4.96,13.84-5.55c2.54-0.28,6.25-0.9,8.88-0.22
				c3.67,0.95,5.34,2.18,6.07,5.77c0.77,3.72-1.41,5.38-4.5,7.65c-0.81,0.59-1.31,0.91-0.81,2.13
				c6.39,14.48,15.97,25.78,31.49,30.81c18.87,6.13,37.66-1.72,46.73-19.28c2.86-5.54,5.33-10.87,7.19-16.77
				c0.41-1.27-0.2-2.29-1.61-2.7c-3.49-0.95-6.18-3.33-6.28-6.41s1.1-5.03,4.55-6.66c3.04-1.32,6-1.18,10.69-0.61
				C155.97,80.39,160.48,81.67,166.47,86.74z"/>
		</g>
		<g>
			<g>
				<path id="g3v9M5pdt_1_" fill-opacity="0" stroke="#000000" stroke-opacity="0" d="M166.47,86.74c5.99,5.07,6.82,7.02,6.14,10.84
					c-0.77,4.35-4.83,5.63-9.14,4.82c-1.5-0.32-2.5,2.25-2.87,3.43c-3.13,10.25-6.89,17.76-13.56,26.189
					c-9.71,12.261-22.41,19.521-37.98,20.83c-27.04,2.32-46.78-9.8-60.93-32.119c-3.13-4.95-5.36-10.301-6.67-16.021
					c-0.19-0.68-0.14-1.14-1.23-0.95c-4.58,0.631-7.13-0.06-8.63-3.87c-1.49-3.77,0.13-5.65,3.44-8.23
					c4.22-3.27,8.71-4.96,13.84-5.55c2.54-0.28,6.25-0.9,8.88-0.22c3.67,0.95,5.34,2.18,6.07,5.77c0.77,3.72-1.41,5.38-4.5,7.65
					c-0.81,0.59-1.31,0.91-0.81,2.13c6.39,14.48,15.97,25.78,31.49,30.81c18.87,6.13,37.66-1.72,46.73-19.28
					c2.86-5.54,5.33-10.87,7.19-16.77c0.41-1.27-0.2-2.29-1.61-2.7c-3.49-0.95-6.18-3.33-6.28-6.41s1.1-5.03,4.55-6.66
					c3.04-1.32,6-1.18,10.69-0.61C155.97,80.39,160.48,81.67,166.47,86.74z"/>
			</g>
		</g>
	</g>
	<g>
		<g>
			<path id="ieBfhiFJb" fill="#FEFEFE" d="M76.17,43.23c6.67-0.32,12.88,5.85,13.29,12.57c0.5,7.98-5.35,14.29-12.61,14.52
				c-8.08,0.22-14.7-6.77-13.8-13.57C62.15,50.44,68.09,43.59,76.17,43.23z"/>
		</g>
		<g>
			<g>
				<path id="ieBfhiFJb_1_" fill-opacity="0" stroke="#000000" stroke-opacity="0" d="M76.17,43.23
					c6.67-0.32,12.88,5.85,13.29,12.57c0.5,7.98-5.35,14.29-12.61,14.52c-8.08,0.22-14.7-6.77-13.8-13.57
					C62.15,50.44,68.09,43.59,76.17,43.23z"/>
			</g>
		</g>
	</g>
	<g>
		<g>
			<path id="a4P2hF8XDO" fill="#FEFEFE" d="M122.31,40.37c7.22-0.16,13.34,6.03,13.39,13.2c0.04,7.35-6.22,13.61-13.57,13.57
				c-7.08-0.09-12.96-5.9-13.2-12.57C108.58,44.87,115.67,40.51,122.31,40.37z"/>
		</g>
		<g>
			<g>
				<path id="a4P2hF8XDO_1_" fill-opacity="0" stroke="#000000" stroke-opacity="0" d="M122.31,40.37
					c7.22-0.16,13.34,6.03,13.39,13.2c0.04,7.35-6.22,13.61-13.57,13.57c-7.08-0.09-12.96-5.9-13.2-12.57
					C108.58,44.87,115.67,40.51,122.31,40.37z"/>
			</g>
		</g>
	</g>
</g>
<text transform="matrix(1 0 0 1 -580.4961 135.3936)" fill="#FFFFFF" font-family="'MyriadPro-Regular'" font-size="114.3873">Powered by</text>
</svg>
